<mxfile host="65bd71144e">
    <diagram id="I0e3CnHEker1yPUxd-W-" name="Arquitetura em Camadas">
        <mxGraphModel dx="888" dy="792" grid="1" gridSize="10" guides="1" tooltips="1" connect="1" arrows="1" fold="1" page="1" pageScale="1" pageWidth="850" pageHeight="1100" math="0" shadow="0">
            <root>
                <mxCell id="0"/>
                <mxCell id="1" parent="0"/>
                <mxCell id="2" value="ecommerce-node-api (back -end)" style="verticalAlign=top;align=left;spacingTop=8;spacingLeft=2;spacingRight=12;shape=cube;size=10;direction=south;fontStyle=4;html=1;strokeWidth=2;" vertex="1" parent="1">
                    <mxGeometry x="150" y="220" width="470" height="400" as="geometry"/>
                </mxCell>
                <mxCell id="3" value="ecommerce-web-app (front- end)" style="verticalAlign=top;align=left;spacingTop=8;spacingLeft=2;spacingRight=12;shape=cube;size=10;direction=south;fontStyle=4;html=1;strokeWidth=2;" vertex="1" parent="1">
                    <mxGeometry x="90" y="50" width="540" height="120" as="geometry"/>
                </mxCell>
                <mxCell id="4" value="" style="shape=cylinder3;whiteSpace=wrap;html=1;boundedLbl=1;backgroundOutline=1;size=15;strokeWidth=2;" vertex="1" parent="1">
                    <mxGeometry x="320" y="640" width="180" height="150" as="geometry"/>
                </mxCell>
                <mxCell id="7" value="Database (Relacional)" style="text;html=1;strokeColor=none;fillColor=none;align=center;verticalAlign=middle;whiteSpace=wrap;rounded=0;strokeWidth=2;" vertex="1" parent="1">
                    <mxGeometry x="345" y="690" width="130" height="50" as="geometry"/>
                </mxCell>
                <mxCell id="9" value="" style="rounded=1;whiteSpace=wrap;html=1;strokeWidth=2;fillColor=#a20025;fontColor=#ffffff;strokeColor=#6F0000;" vertex="1" parent="1">
                    <mxGeometry x="265" y="370" width="290" height="110" as="geometry"/>
                </mxCell>
                <mxCell id="10" value="&lt;font color=&quot;#141010&quot; style=&quot;font-size: 14px;&quot;&gt;&lt;b&gt;Camada de domínio&lt;/b&gt;&lt;/font&gt;" style="text;html=1;align=center;verticalAlign=middle;whiteSpace=wrap;rounded=0;strokeWidth=6;perimeterSpacing=1;" vertex="1" parent="1">
                    <mxGeometry x="265" y="380" width="155" height="30" as="geometry"/>
                </mxCell>
                <mxCell id="23" style="edgeStyle=none;html=1;exitX=0.5;exitY=1;exitDx=0;exitDy=0;entryX=0.599;entryY=0;entryDx=0;entryDy=0;entryPerimeter=0;fontSize=14;fontColor=#141010;dashed=1;" edge="1" parent="1" source="12" target="10">
                    <mxGeometry relative="1" as="geometry"/>
                </mxCell>
                <mxCell id="12" value="" style="rounded=1;whiteSpace=wrap;html=1;strokeWidth=2;fillColor=#a1ab17;fontColor=#ffffff;strokeColor=#2D7600;" vertex="1" parent="1">
                    <mxGeometry x="180" y="280" width="375" height="75" as="geometry"/>
                </mxCell>
                <mxCell id="13" value="&lt;font color=&quot;#141010&quot; style=&quot;font-size: 14px;&quot;&gt;&lt;b&gt;Camada de aplicação&lt;/b&gt;&lt;/font&gt;" style="text;html=1;align=center;verticalAlign=middle;whiteSpace=wrap;rounded=0;strokeWidth=6;perimeterSpacing=1;" vertex="1" parent="1">
                    <mxGeometry x="180" y="280" width="155" height="30" as="geometry"/>
                </mxCell>
                <mxCell id="24" style="edgeStyle=none;html=1;exitX=0.75;exitY=0;exitDx=0;exitDy=0;dashed=1;fontSize=14;fontColor=#141010;" edge="1" parent="1" source="15" target="9">
                    <mxGeometry relative="1" as="geometry"/>
                </mxCell>
                <mxCell id="29" style="edgeStyle=none;html=1;exitX=0.058;exitY=0.013;exitDx=0;exitDy=0;entryX=0.085;entryY=1.027;entryDx=0;entryDy=0;entryPerimeter=0;dashed=1;fontSize=14;fontColor=#141010;exitPerimeter=0;" edge="1" parent="1" source="15" target="12">
                    <mxGeometry relative="1" as="geometry"/>
                </mxCell>
                <mxCell id="15" value="" style="rounded=1;whiteSpace=wrap;html=1;strokeWidth=2;fillColor=#008a00;fontColor=#ffffff;strokeColor=#005700;" vertex="1" parent="1">
                    <mxGeometry x="190" y="500" width="365" height="75" as="geometry"/>
                </mxCell>
                <mxCell id="17" value="&lt;font color=&quot;#141010&quot; style=&quot;font-size: 14px;&quot;&gt;&lt;b&gt;Camada de Infraestrutura&lt;/b&gt;&lt;/font&gt;" style="text;html=1;align=center;verticalAlign=middle;whiteSpace=wrap;rounded=0;strokeWidth=6;perimeterSpacing=1;" vertex="1" parent="1">
                    <mxGeometry x="190" y="500" width="195" height="30" as="geometry"/>
                </mxCell>
                <mxCell id="20" value="" style="rounded=1;whiteSpace=wrap;html=1;strokeWidth=2;fillColor=#d80073;fontColor=#ffffff;strokeColor=#A50040;" vertex="1" parent="1">
                    <mxGeometry x="180" y="100" width="375" height="47.5" as="geometry"/>
                </mxCell>
                <mxCell id="21" value="&lt;font color=&quot;#141010&quot; style=&quot;font-size: 14px;&quot;&gt;&lt;b&gt;Camada de apresentação&lt;/b&gt;&lt;/font&gt;" style="text;html=1;align=center;verticalAlign=middle;whiteSpace=wrap;rounded=0;strokeWidth=6;perimeterSpacing=1;" vertex="1" parent="1">
                    <mxGeometry x="350" y="100" width="215" height="30" as="geometry"/>
                </mxCell>
                <mxCell id="31" value="" style="rounded=0;whiteSpace=wrap;html=1;fillColor=none;strokeColor=#0000FF;strokeWidth=2;fontSize=14;fontColor=#141010;dashed=1;" vertex="1" parent="1">
                    <mxGeometry x="406" y="250" width="140" height="350" as="geometry"/>
                </mxCell>
                <mxCell id="32" value="&lt;font color=&quot;#e9d3d3&quot;&gt;Módulo/Subdomínio&lt;/font&gt;" style="text;html=1;strokeColor=none;fillColor=none;align=center;verticalAlign=middle;whiteSpace=wrap;rounded=0;dashed=1;strokeWidth=6;fontSize=14;fontColor=#141010;" vertex="1" parent="1">
                    <mxGeometry x="445" y="250" width="60" height="30" as="geometry"/>
                </mxCell>
                <mxCell id="35" value="" style="whiteSpace=wrap;html=1;aspect=fixed;strokeColor=#0000FF;strokeWidth=2;fontSize=14;fontColor=#e9d3d3;fillColor=none;dashed=1;" vertex="1" parent="1">
                    <mxGeometry x="420" y="370" width="110" height="110" as="geometry"/>
                </mxCell>
                <mxCell id="37" value="entity" style="text;html=1;strokeColor=none;fillColor=none;align=center;verticalAlign=middle;whiteSpace=wrap;rounded=0;dashed=1;strokeWidth=2;fontSize=14;fontColor=#e9d3d3;" vertex="1" parent="1">
                    <mxGeometry x="425" y="390" width="45" height="20" as="geometry"/>
                </mxCell>
                <mxCell id="38" value="exception" style="text;html=1;strokeColor=none;fillColor=none;align=center;verticalAlign=middle;whiteSpace=wrap;rounded=0;dashed=1;strokeWidth=2;fontSize=14;fontColor=#e9d3d3;" vertex="1" parent="1">
                    <mxGeometry x="470" y="390" width="55" height="20" as="geometry"/>
                </mxCell>
                <mxCell id="39" value="types" style="text;html=1;strokeColor=none;fillColor=none;align=center;verticalAlign=middle;whiteSpace=wrap;rounded=0;dashed=1;strokeWidth=2;fontSize=14;fontColor=#e9d3d3;" vertex="1" parent="1">
                    <mxGeometry x="425" y="440" width="50" height="20" as="geometry"/>
                </mxCell>
                <mxCell id="40" value="spec" style="text;html=1;strokeColor=none;fillColor=none;align=center;verticalAlign=middle;whiteSpace=wrap;rounded=0;dashed=1;strokeWidth=2;fontSize=14;fontColor=#e9d3d3;" vertex="1" parent="1">
                    <mxGeometry x="480" y="440" width="45" height="20" as="geometry"/>
                </mxCell>
                <mxCell id="41" value="Text" style="text;html=1;strokeColor=none;fillColor=none;align=center;verticalAlign=middle;whiteSpace=wrap;rounded=0;dashed=1;strokeWidth=2;fontSize=14;fontColor=#e9d3d3;" vertex="1" parent="1">
                    <mxGeometry x="400" y="520" width="60" height="30" as="geometry"/>
                </mxCell>
            </root>
        </mxGraphModel>
    </diagram>
</mxfile>